<?xml version="1.0" encoding="utf-8"?>
<!-- Generator: Adobe Illustrator 25.4.1, SVG Export Plug-In . SVG Version: 6.00 Build 0)  -->
<svg version="1.1"
	 id="svg111" inkscape:version="1.3.1 (91b66b0783, 2023-11-16)" xmlns:inkscape="http://www.inkscape.org/namespaces/inkscape" xmlns:sodipodi="http://sodipodi.sourceforge.net/DTD/sodipodi-0.dtd" xmlns:svg="http://www.w3.org/2000/svg"
	 xmlns="http://www.w3.org/2000/svg" xmlns:xlink="http://www.w3.org/1999/xlink" x="0px" y="0px" viewBox="0 0 210 700"
	 style="enable-background:new 0 0 210 700;" xml:space="preserve">
<style type="text/css">
	.st0{fill:#FFFFFF;}
	.st1{fill-opacity:3.921569e-03;}
	.st2{clip-path:url(#SVGID_00000158025032478663145970000001900896926093430945_);fill:#FFFFFF;}
</style>
<sodipodi:namedview  bordercolor="#000000" borderopacity="0.25" id="namedview111" inkscape:current-layer="svg111" inkscape:cx="37.884379" inkscape:cy="161.97724" inkscape:deskcolor="#d1d1d1" inkscape:pagecheckerboard="0" inkscape:pageopacity="0.0" inkscape:showpageshadow="2" inkscape:window-height="1009" inkscape:window-maximized="1" inkscape:window-width="1920" inkscape:window-x="-8" inkscape:window-y="-8" inkscape:zoom="4.6457143" pagecolor="#ffffff">
	</sodipodi:namedview>
<g id="g56" transform="matrix( 1, 0, 0, 1, 0,0) ">
	<g id="use56">
		<g id="Layer0_0_FILL">
			<path id="path1" class="st0" d="M48.8,30c-0.5-0.5-1-0.7-1.6-0.7h-2.8v-5.4c0-2.3-0.9-4.3-2.7-6.1c-1.9-1.9-4.2-2.9-6.8-2.9
				c-2.6,0-4.9,1-6.8,2.9c-1.8,1.8-2.7,3.9-2.7,6.1v5.4h-2.6c-0.6,0-1.2,0.2-1.6,0.7c-0.5,0.4-0.7,1-0.7,1.6v17.4
				c0,0.6,0.2,1.2,0.7,1.6c0.5,0.5,1,0.7,1.6,0.7h24.4c0.6,0,1.2-0.2,1.6-0.7c0.4-0.4,0.7-1,0.7-1.6V31.5
				C49.5,30.9,49.2,30.4,48.8,30 M40.9,23.9v5.4h-12v-5.4c0-1.3,0.5-2.5,1.6-3.6c1.2-1.3,2.7-2,4.4-2c1.7,0,3.1,0.6,4.3,2
				C40.4,21.4,40.9,22.6,40.9,23.9z"/>
		</g>
	</g>
</g>
<g id="g57" transform="matrix( 1, 0, 0, 1, 25.5,-1.85) ">
	<g id="use57">
		<g id="Layer0_1_FILL">
			<path id="path2" class="st1" d="M44.5,71.8v-70h-70v70H44.5z"/>
		</g>
	</g>
</g>
<g id="g58" transform="matrix( 1, 0, 0, 1, 0,70) ">
	<g id="use58">
		<g id="Layer0_2_FILL">
			<path id="path3" class="st1" d="M0,0v70h70V0H0z"/>
		</g>
	</g>
</g>
<g id="g60" transform="matrix( 1, 0, 0, 1, 70,70) ">
	<g id="use60">
		<g id="Layer0_4_FILL">
			<path id="path5" class="st1" d="M0,0v70h70V0H0z"/>
		</g>
	</g>
</g>
<g id="g62" transform="matrix( 1, 0, 0, 1, 140,70) ">
	<g id="use62">
		<g id="Layer0_6_FILL">
			<path id="path7" class="st1" d="M0,0v70h70V0H0z"/>
		</g>
	</g>
</g>
<g id="g66" transform="matrix( 1, 0, 0, 1, 70,140) ">
	<g id="use66">
		<g id="Layer0_10_FILL">
			<path id="path11" class="st1" d="M0,0v70h70V0H0z"/>
		</g>
	</g>
</g>
<g id="g68" transform="matrix( 1, 0, 0, 1, 140,140) ">
	<g id="use68">
		<g id="Layer0_12_FILL">
			<path id="path13" class="st1" d="M0,0v70h70V0H0z"/>
		</g>
	</g>
</g>
<g id="g70" transform="matrix( 1, 0, 0, 1, 0,210) ">
	<g id="use70">
		<g id="Layer0_14_FILL">
			<path id="path15" class="st1" d="M0,0v70h70V0H0z"/>
		</g>
	</g>
</g>
<g id="g71" transform="matrix( 1, 0, 0, 1, 0,210) ">
	<g id="use71">
		<g id="Layer0_15_FILL">
			<path id="path16" class="st0" d="M56.7,35.8c0.2-0.4,0.2-0.9,0-1.5c-2.5-4.5-5.7-8-9.5-10.4c-3.8-2.5-7.8-3.7-12-3.7
				c-4.2,0-8.2,1.3-12.1,3.8c-3.8,2.5-7,5.9-9.5,10.3c-0.4,0.5-0.4,1,0,1.5c2.5,4.5,5.7,8,9.5,10.5c3.8,2.5,7.8,3.7,12.1,3.7
				c4.2,0,8.2-1.3,12-3.8C51,43.7,54.1,40.2,56.7,35.8 M40.2,40.1c-1.4,1.4-3.1,2.1-5,2.1c-2,0-3.7-0.7-5.1-2.1c-1.3-1.4-2-3-2-5
				c0-1.9,0.7-3.6,2.1-5c1.4-1.4,3.1-2.1,5-2.1c1.9,0,3.6,0.7,5,2.1c1.3,1.3,2,3,2,5C42.2,37.1,41.5,38.7,40.2,40.1z"/>
		</g>
	</g>
</g>
<g id="g72" transform="matrix( 1, 0, 0, 1, 70,210) ">
	<g id="use72">
		<g id="Layer0_16_FILL">
			<path id="path17" class="st1" d="M0,0v70h70V0H0z"/>
		</g>
	</g>
</g>
<g id="g73" transform="matrix( 1, 0, 0, 1, 70,210) ">
	<g id="use73">
		<g id="Layer0_17_FILL">
			<path id="path18" class="st0" d="M56.7,35.8c0.2-0.4,0.2-0.9,0-1.5c-2.5-4.5-5.7-8-9.5-10.4c-3.8-2.5-7.8-3.7-12-3.7
				c-4.2,0-8.2,1.3-12.1,3.8c-3.8,2.5-7,5.9-9.5,10.3c-0.4,0.5-0.4,1,0,1.5c2.5,4.5,5.7,8,9.5,10.5c3.8,2.5,7.8,3.7,12.1,3.7
				c4.2,0,8.2-1.3,12-3.8C51,43.7,54.1,40.2,56.7,35.8 M40.2,40.1c-1.4,1.4-3.1,2.1-5,2.1c-2,0-3.7-0.7-5.1-2.1c-1.3-1.4-2-3-2-5
				c0-1.9,0.7-3.6,2.1-5c1.4-1.4,3.1-2.1,5-2.1c1.9,0,3.6,0.7,5,2.1c1.3,1.3,2,3,2,5C42.2,37.1,41.5,38.7,40.2,40.1z"/>
		</g>
	</g>
</g>
<g id="g74" transform="matrix( 1, 0, 0, 1, 140,210) ">
	<g id="use74">
		<g id="Layer0_18_FILL">
			<path id="path19" class="st1" d="M0,0v70h70V0H0z"/>
		</g>
	</g>
</g>
<g id="g75" transform="matrix( 1, 0, 0, 1, 140,210) ">
	<g id="use75">
		<g id="Layer0_19_FILL">
			<path id="path20" class="st0" d="M56.7,35.8c0.2-0.4,0.2-0.9,0-1.5c-2.5-4.5-5.7-8-9.5-10.4c-3.8-2.5-7.8-3.7-12-3.7
				c-4.2,0-8.2,1.3-12.1,3.8c-3.8,2.5-7,5.9-9.5,10.3c-0.4,0.5-0.4,1,0,1.5c2.5,4.5,5.7,8,9.5,10.5c3.8,2.5,7.8,3.7,12.1,3.7
				c4.2,0,8.2-1.3,12-3.8C51,43.7,54.1,40.2,56.7,35.8 M40.2,40.1c-1.4,1.4-3.1,2.1-5,2.1c-2,0-3.7-0.7-5.1-2.1c-1.3-1.4-2-3-2-5
				c0-1.9,0.7-3.6,2.1-5c1.4-1.4,3.1-2.1,5-2.1c1.9,0,3.6,0.7,5,2.1c1.3,1.3,2,3,2,5C42.2,37.1,41.5,38.7,40.2,40.1z"/>
		</g>
	</g>
</g>
<g id="g76" transform="matrix( 1, 0, 0, 1, 0,280) ">
	<g id="use76">
		<g id="Layer0_20_FILL">
			<path id="path21" class="st1" d="M0,0v70h70V0H0z"/>
		</g>
	</g>
</g>
<g id="g77" transform="matrix( 1, 0, 0, 1, 0,280) ">
	<g id="use77">
		<g id="Layer0_21_FILL">
			<path id="path22" class="st0" d="M56.7,35.8c0.2-0.4,0.2-0.9,0-1.5c-2.5-4.5-5.7-8-9.5-10.4c-3.8-2.5-7.8-3.7-12-3.7
				c-4.2,0-8.2,1.3-12.1,3.8c-3.8,2.5-7,5.9-9.5,10.3c-0.4,0.5-0.4,1,0,1.5c2.5,4.5,5.7,8,9.5,10.5c3.8,2.5,7.8,3.7,12.1,3.7
				c4.2,0,8.2-1.3,12-3.8C51,43.7,54.1,40.2,56.7,35.8 M40.2,40.1c-1.4,1.4-3.1,2.1-5,2.1c-2,0-3.7-0.7-5.1-2.1c-1.3-1.4-2-3-2-5
				c0-1.9,0.7-3.6,2.1-5c1.4-1.4,3.1-2.1,5-2.1c1.9,0,3.6,0.7,5,2.1c1.3,1.3,2,3,2,5C42.2,37.1,41.5,38.7,40.2,40.1z"/>
		</g>
	</g>
</g>
<g id="g78" transform="matrix( 1, 0, 0, 1, 70,280) ">
	<g id="use78">
		<g id="Layer0_22_FILL">
			<path id="path23" class="st1" d="M0,0v70h70V0H0z"/>
		</g>
	</g>
</g>
<g id="g79" transform="matrix( 1, 0, 0, 1, 70,280) ">
	<g id="use79">
		<g id="Layer0_23_FILL">
			<path id="path24" class="st0" d="M56.7,35.8c0.2-0.4,0.2-0.9,0-1.5c-2.5-4.5-5.7-8-9.5-10.4c-3.8-2.5-7.8-3.7-12-3.7
				c-4.2,0-8.2,1.3-12.1,3.8c-3.8,2.5-7,5.9-9.5,10.3c-0.4,0.5-0.4,1,0,1.5c2.5,4.5,5.7,8,9.5,10.5c3.8,2.5,7.8,3.7,12.1,3.7
				c4.2,0,8.2-1.3,12-3.8C51,43.7,54.1,40.2,56.7,35.8 M40.2,40.1c-1.4,1.4-3.1,2.1-5,2.1c-2,0-3.7-0.7-5.1-2.1c-1.3-1.4-2-3-2-5
				c0-1.9,0.7-3.6,2.1-5c1.4-1.4,3.1-2.1,5-2.1c1.9,0,3.6,0.7,5,2.1c1.3,1.3,2,3,2,5C42.2,37.1,41.5,38.7,40.2,40.1z"/>
		</g>
	</g>
</g>
<g id="g80" transform="matrix( 1, 0, 0, 1, 140,280) ">
	<g id="use80">
		<g id="Layer0_24_FILL">
			<path id="path25" class="st1" d="M0,0v70h70V0H0z"/>
		</g>
	</g>
</g>
<g id="g81" transform="matrix( 1, 0, 0, 1, 140,280) ">
	<g id="use81">
		<g id="Layer0_25_FILL">
			<path id="path26" class="st0" d="M56.7,35.8c0.2-0.4,0.2-0.9,0-1.5c-2.5-4.5-5.7-8-9.5-10.4c-3.8-2.5-7.8-3.7-12-3.7
				c-4.2,0-8.2,1.3-12.1,3.8c-3.8,2.5-7,5.9-9.5,10.3c-0.4,0.5-0.4,1,0,1.5c2.5,4.5,5.7,8,9.5,10.5c3.8,2.5,7.8,3.7,12.1,3.7
				c4.2,0,8.2-1.3,12-3.8C51,43.7,54.1,40.2,56.7,35.8 M40.2,40.1c-1.4,1.4-3.1,2.1-5,2.1c-2,0-3.7-0.7-5.1-2.1c-1.3-1.4-2-3-2-5
				c0-1.9,0.7-3.6,2.1-5c1.4-1.4,3.1-2.1,5-2.1c1.9,0,3.6,0.7,5,2.1c1.3,1.3,2,3,2,5C42.2,37.1,41.5,38.7,40.2,40.1z"/>
		</g>
	</g>
</g>
<g id="g82" transform="matrix( 1, 0, 0, 1, 0,350) ">
	<g id="use82">
		<g id="Layer0_26_FILL">
			<path id="path27" class="st1" d="M0,0v70h70V0H0z"/>
		</g>
	</g>
</g>
<g id="g83" transform="matrix( 1, 0, 0, 1, 0,350) ">
	<g id="use83">
		<g id="Layer0_27_FILL">
			<path id="path28" class="st0" d="M56.7,35.8c0.2-0.4,0.2-0.9,0-1.5c-2.5-4.5-5.7-8-9.5-10.4c-3.8-2.5-7.8-3.7-12-3.7
				c-4.2,0-8.2,1.3-12.1,3.8c-3.8,2.5-7,5.9-9.5,10.3c-0.4,0.5-0.4,1,0,1.5c2.5,4.5,5.7,8,9.5,10.5c3.8,2.5,7.8,3.7,12.1,3.7
				c4.2,0,8.2-1.3,12-3.8C51,43.7,54.1,40.2,56.7,35.8 M40.2,40.1c-1.4,1.4-3.1,2.1-5,2.1c-2,0-3.7-0.7-5.1-2.1c-1.3-1.4-2-3-2-5
				c0-1.9,0.7-3.6,2.1-5c1.4-1.4,3.1-2.1,5-2.1c1.9,0,3.6,0.7,5,2.1c1.3,1.3,2,3,2,5C42.2,37.1,41.5,38.7,40.2,40.1z"/>
		</g>
	</g>
</g>
<g id="g84" transform="matrix( 1, 0, 0, 1, 70,350) ">
	<g id="use84">
		<g id="Layer0_28_FILL">
			<path id="path29" class="st1" d="M0,0v70h70V0H0z"/>
		</g>
	</g>
</g>
<g id="g85" transform="matrix( 1, 0, 0, 1, 70,350) ">
	<g id="use85">
		<g id="Layer0_29_FILL">
			<path id="path30" class="st0" d="M56.7,35.8c0.2-0.4,0.2-0.9,0-1.5c-2.5-4.5-5.7-8-9.5-10.4c-3.8-2.5-7.8-3.7-12-3.7
				c-4.2,0-8.2,1.3-12.1,3.8c-3.8,2.5-7,5.9-9.5,10.3c-0.4,0.5-0.4,1,0,1.5c2.5,4.5,5.7,8,9.5,10.5c3.8,2.5,7.8,3.7,12.1,3.7
				c4.2,0,8.2-1.3,12-3.8C51,43.7,54.1,40.2,56.7,35.8 M40.2,40.1c-1.4,1.4-3.1,2.1-5,2.1c-2,0-3.7-0.7-5.1-2.1c-1.3-1.4-2-3-2-5
				c0-1.9,0.7-3.6,2.1-5c1.4-1.4,3.1-2.1,5-2.1c1.9,0,3.6,0.7,5,2.1c1.3,1.3,2,3,2,5C42.2,37.1,41.5,38.7,40.2,40.1z"/>
		</g>
	</g>
</g>
<g id="g86" transform="matrix( 1, 0, 0, 1, 140,350) ">
	<g id="use86">
		<g id="Layer0_30_FILL">
			<path id="path31" class="st1" d="M0,0v70h70V0H0z"/>
		</g>
	</g>
</g>
<g id="g87" transform="matrix( 1, 0, 0, 1, 140,350) ">
	<g id="use87">
		<g id="Layer0_31_FILL">
			<path id="path32" class="st0" d="M56.7,35.8c0.2-0.4,0.2-0.9,0-1.5c-2.5-4.5-5.7-8-9.5-10.4c-3.8-2.5-7.8-3.7-12-3.7
				c-4.2,0-8.2,1.3-12.1,3.8c-3.8,2.5-7,5.9-9.5,10.3c-0.4,0.5-0.4,1,0,1.5c2.5,4.5,5.7,8,9.5,10.5c3.8,2.5,7.8,3.7,12.1,3.7
				c4.2,0,8.2-1.3,12-3.8C51,43.7,54.1,40.2,56.7,35.8 M40.2,40.1c-1.4,1.4-3.1,2.1-5,2.1c-2,0-3.7-0.7-5.1-2.1c-1.3-1.4-2-3-2-5
				c0-1.9,0.7-3.6,2.1-5c1.4-1.4,3.1-2.1,5-2.1c1.9,0,3.6,0.7,5,2.1c1.3,1.3,2,3,2,5C42.2,37.1,41.5,38.7,40.2,40.1z"/>
		</g>
	</g>
</g>
<g id="g88" transform="matrix( 1, 0, 0, 1, 0,420) ">
	<g id="use88">
		<g id="Layer0_32_FILL">
			<path id="path33" class="st1" d="M0,0v70h70V0H0z"/>
		</g>
	</g>
</g>
<g id="g89" transform="matrix( 1, 0, 0, 1, 0,420) ">
	<g id="use89">
		<g id="Layer0_33_FILL">
			<path id="path34" class="st0" d="M56.7,35.8c0.2-0.4,0.2-0.9,0-1.5c-2.5-4.5-5.7-8-9.5-10.4c-3.8-2.5-7.8-3.7-12-3.7
				c-4.2,0-8.2,1.3-12.1,3.8c-3.8,2.5-7,5.9-9.5,10.3c-0.4,0.5-0.4,1,0,1.5c2.5,4.5,5.7,8,9.5,10.5c3.8,2.5,7.8,3.7,12.1,3.7
				c4.2,0,8.2-1.3,12-3.8C51,43.7,54.1,40.2,56.7,35.8 M40.2,40.1c-1.4,1.4-3.1,2.1-5,2.1c-2,0-3.7-0.7-5.1-2.1c-1.3-1.4-2-3-2-5
				c0-1.9,0.7-3.6,2.1-5c1.4-1.4,3.1-2.1,5-2.1c1.9,0,3.6,0.7,5,2.1c1.3,1.3,2,3,2,5C42.2,37.1,41.5,38.7,40.2,40.1z"/>
		</g>
	</g>
</g>
<g id="g90" transform="matrix( 1, 0, 0, 1, 70,420) ">
	<g id="use90">
		<g id="Layer0_34_FILL">
			<path id="path35" class="st1" d="M0,0v70h70V0H0z"/>
		</g>
	</g>
</g>
<g id="g91" transform="matrix( 1, 0, 0, 1, 70,420) ">
	<g id="use91">
		<g id="Layer0_35_FILL">
			<path id="path36" class="st0" d="M56.7,35.8c0.2-0.4,0.2-0.9,0-1.5c-2.5-4.5-5.7-8-9.5-10.4c-3.8-2.5-7.8-3.7-12-3.7
				c-4.2,0-8.2,1.3-12.1,3.8c-3.8,2.5-7,5.9-9.5,10.3c-0.4,0.5-0.4,1,0,1.5c2.5,4.5,5.7,8,9.5,10.5c3.8,2.5,7.8,3.7,12.1,3.7
				c4.2,0,8.2-1.3,12-3.8C51,43.7,54.1,40.2,56.7,35.8 M40.2,40.1c-1.4,1.4-3.1,2.1-5,2.1c-2,0-3.7-0.7-5.1-2.1c-1.3-1.4-2-3-2-5
				c0-1.9,0.7-3.6,2.1-5c1.4-1.4,3.1-2.1,5-2.1c1.9,0,3.6,0.7,5,2.1c1.3,1.3,2,3,2,5C42.2,37.1,41.5,38.7,40.2,40.1z"/>
		</g>
	</g>
</g>
<g id="g92" transform="matrix( 1, 0, 0, 1, 140,420) ">
	<g id="use92">
		<g id="Layer0_36_FILL">
			<path id="path37" class="st1" d="M0,0v70h70V0H0z"/>
		</g>
	</g>
</g>
<g id="g93" transform="matrix( 1, 0, 0, 1, 140,420) ">
	<g id="use93">
		<g id="Layer0_37_FILL">
			<path id="path38" class="st0" d="M56.7,35.8c0.2-0.4,0.2-0.9,0-1.5c-2.5-4.5-5.7-8-9.5-10.4c-3.8-2.5-7.8-3.7-12-3.7
				c-4.2,0-8.2,1.3-12.1,3.8c-3.8,2.5-7,5.9-9.5,10.3c-0.4,0.5-0.4,1,0,1.5c2.5,4.5,5.7,8,9.5,10.5c3.8,2.5,7.8,3.7,12.1,3.7
				c4.2,0,8.2-1.3,12-3.8C51,43.7,54.1,40.2,56.7,35.8 M40.2,40.1c-1.4,1.4-3.1,2.1-5,2.1c-2,0-3.7-0.7-5.1-2.1c-1.3-1.4-2-3-2-5
				c0-1.9,0.7-3.6,2.1-5c1.4-1.4,3.1-2.1,5-2.1c1.9,0,3.6,0.7,5,2.1c1.3,1.3,2,3,2,5C42.2,37.1,41.5,38.7,40.2,40.1z"/>
		</g>
	</g>
</g>
<g id="g94" transform="matrix( 1, 0, 0, 1, 0,490) ">
	<g id="use94">
		<g id="Layer0_38_FILL">
			<path id="path39" class="st1" d="M0,0v70h70V0H0z"/>
		</g>
	</g>
</g>
<g id="g95" transform="matrix( 1, 0, 0, 1, 0,490) ">
	<g id="use95">
		<g id="Layer0_39_FILL">
			<path id="path40" class="st0" d="M56.7,35.8c0.2-0.4,0.2-0.9,0-1.5c-2.5-4.5-5.7-8-9.5-10.4c-3.8-2.5-7.8-3.7-12-3.7
				c-4.2,0-8.2,1.3-12.1,3.8c-3.8,2.5-7,5.9-9.5,10.3c-0.4,0.5-0.4,1,0,1.5c2.5,4.5,5.7,8,9.5,10.5c3.8,2.5,7.8,3.7,12.1,3.7
				c4.2,0,8.2-1.3,12-3.8C51,43.7,54.1,40.2,56.7,35.8 M40.2,40.1c-1.4,1.4-3.1,2.1-5,2.1c-2,0-3.7-0.7-5.1-2.1c-1.3-1.4-2-3-2-5
				c0-1.9,0.7-3.6,2.1-5c1.4-1.4,3.1-2.1,5-2.1c1.9,0,3.6,0.7,5,2.1c1.3,1.3,2,3,2,5C42.2,37.1,41.5,38.7,40.2,40.1z"/>
		</g>
	</g>
</g>
<g id="g96" transform="matrix( 1, 0, 0, 1, 70,490) ">
	<g id="use96">
		<g id="Layer0_40_FILL">
			<path id="path41" class="st1" d="M0,0v70h70V0H0z"/>
		</g>
	</g>
</g>
<g id="g97" transform="matrix( 1, 0, 0, 1, 70,490) ">
	<g id="use97">
		<g id="Layer0_41_FILL">
			<path id="path42" class="st0" d="M56.7,35.8c0.2-0.4,0.2-0.9,0-1.5c-2.5-4.5-5.7-8-9.5-10.4c-3.8-2.5-7.8-3.7-12-3.7
				c-4.2,0-8.2,1.3-12.1,3.8c-3.8,2.5-7,5.9-9.5,10.3c-0.4,0.5-0.4,1,0,1.5c2.5,4.5,5.7,8,9.5,10.5c3.8,2.5,7.8,3.7,12.1,3.7
				c4.2,0,8.2-1.3,12-3.8C51,43.7,54.1,40.2,56.7,35.8 M40.2,40.1c-1.4,1.4-3.1,2.1-5,2.1c-2,0-3.7-0.7-5.1-2.1c-1.3-1.4-2-3-2-5
				c0-1.9,0.7-3.6,2.1-5c1.4-1.4,3.1-2.1,5-2.1c1.9,0,3.6,0.7,5,2.1c1.3,1.3,2,3,2,5C42.2,37.1,41.5,38.7,40.2,40.1z"/>
		</g>
	</g>
</g>
<g id="g98" transform="matrix( 1, 0, 0, 1, 140,490) ">
	<g id="use98">
		<g id="Layer0_42_FILL">
			<path id="path43" class="st1" d="M0,0v70h70V0H0z"/>
		</g>
	</g>
</g>
<g id="g99" transform="matrix( 1, 0, 0, 1, 140,490) ">
	<g id="use99">
		<g id="Layer0_43_FILL">
			<path id="path44" class="st0" d="M56.7,35.8c0.2-0.4,0.2-0.9,0-1.5c-2.5-4.5-5.7-8-9.5-10.4c-3.8-2.5-7.8-3.7-12-3.7
				c-4.2,0-8.2,1.3-12.1,3.8c-3.8,2.5-7,5.9-9.5,10.3c-0.4,0.5-0.4,1,0,1.5c2.5,4.5,5.7,8,9.5,10.5c3.8,2.5,7.8,3.7,12.1,3.7
				c4.2,0,8.2-1.3,12-3.8C51,43.7,54.1,40.2,56.7,35.8 M40.2,40.1c-1.4,1.4-3.1,2.1-5,2.1c-2,0-3.7-0.7-5.1-2.1c-1.3-1.4-2-3-2-5
				c0-1.9,0.7-3.6,2.1-5c1.4-1.4,3.1-2.1,5-2.1c1.9,0,3.6,0.7,5,2.1c1.3,1.3,2,3,2,5C42.2,37.1,41.5,38.7,40.2,40.1z"/>
		</g>
	</g>
</g>
<g id="g100" transform="matrix( 1, 0, 0, 1, 0,560) ">
	<g id="use100">
		<g id="Layer0_44_FILL">
			<path id="path45" class="st1" d="M0,0v70h70V0H0z"/>
		</g>
	</g>
</g>
<g id="g101" transform="matrix( 1, 0, 0, 1, 0,560) ">
	<g id="use101">
		<g id="Layer0_45_FILL">
			<path id="path46" class="st0" d="M56.7,35.8c0.2-0.4,0.2-0.9,0-1.5c-2.5-4.5-5.7-8-9.5-10.4c-3.8-2.5-7.8-3.7-12-3.7
				c-4.2,0-8.2,1.3-12.1,3.8c-3.8,2.5-7,5.9-9.5,10.3c-0.4,0.5-0.4,1,0,1.5c2.5,4.5,5.7,8,9.5,10.5c3.8,2.5,7.8,3.7,12.1,3.7
				c4.2,0,8.2-1.3,12-3.8C51,43.7,54.1,40.2,56.7,35.8 M40.2,40.1c-1.4,1.4-3.1,2.1-5,2.1c-2,0-3.7-0.7-5.1-2.1c-1.3-1.4-2-3-2-5
				c0-1.9,0.7-3.6,2.1-5c1.4-1.4,3.1-2.1,5-2.1c1.9,0,3.6,0.7,5,2.1c1.3,1.3,2,3,2,5C42.2,37.1,41.5,38.7,40.2,40.1z"/>
		</g>
	</g>
</g>
<g id="g102" transform="matrix( 1, 0, 0, 1, 70,560) ">
	<g id="use102">
		<g id="Layer0_46_FILL">
			<path id="path47" class="st1" d="M0,0v70h70V0H0z"/>
		</g>
	</g>
</g>
<g id="g103" transform="matrix( 1, 0, 0, 1, 70,560) ">
	<g id="use103">
		<g id="Layer0_47_FILL">
			<path id="path48" class="st0" d="M56.7,35.8c0.2-0.4,0.2-0.9,0-1.5c-2.5-4.5-5.7-8-9.5-10.4c-3.8-2.5-7.8-3.7-12-3.7
				c-4.2,0-8.2,1.3-12.1,3.8c-3.8,2.5-7,5.9-9.5,10.3c-0.4,0.5-0.4,1,0,1.5c2.5,4.5,5.7,8,9.5,10.5c3.8,2.5,7.8,3.7,12.1,3.7
				c4.2,0,8.2-1.3,12-3.8C51,43.7,54.1,40.2,56.7,35.8 M40.2,40.1c-1.4,1.4-3.1,2.1-5,2.1c-2,0-3.7-0.7-5.1-2.1c-1.3-1.4-2-3-2-5
				c0-1.9,0.7-3.6,2.1-5c1.4-1.4,3.1-2.1,5-2.1c1.9,0,3.6,0.7,5,2.1c1.3,1.3,2,3,2,5C42.2,37.1,41.5,38.7,40.2,40.1z"/>
		</g>
	</g>
</g>
<g id="g104" transform="matrix( 1, 0, 0, 1, 140,560) ">
	<g id="use104">
		<g id="Layer0_48_FILL">
			<path id="path49" class="st1" d="M0,0v70h70V0H0z"/>
		</g>
	</g>
</g>
<g id="g105" transform="matrix( 1, 0, 0, 1, 140,560) ">
	<g id="use105">
		<g id="Layer0_49_FILL">
			<path id="path50" class="st0" d="M56.7,35.8c0.2-0.4,0.2-0.9,0-1.5c-2.5-4.5-5.7-8-9.5-10.4c-3.8-2.5-7.8-3.7-12-3.7
				c-4.2,0-8.2,1.3-12.1,3.8c-3.8,2.5-7,5.9-9.5,10.3c-0.4,0.5-0.4,1,0,1.5c2.5,4.5,5.7,8,9.5,10.5c3.8,2.5,7.8,3.7,12.1,3.7
				c4.2,0,8.2-1.3,12-3.8C51,43.7,54.1,40.2,56.7,35.8 M40.2,40.1c-1.4,1.4-3.1,2.1-5,2.1c-2,0-3.7-0.7-5.1-2.1c-1.3-1.4-2-3-2-5
				c0-1.9,0.7-3.6,2.1-5c1.4-1.4,3.1-2.1,5-2.1c1.9,0,3.6,0.7,5,2.1c1.3,1.3,2,3,2,5C42.2,37.1,41.5,38.7,40.2,40.1z"/>
		</g>
	</g>
</g>
<g id="g106" transform="matrix( 1, 0, 0, 1, 0,630) ">
	<g id="use106">
		<g id="Layer0_50_FILL">
			<path id="path51" class="st1" d="M0,0v70h70V0H0z"/>
		</g>
	</g>
</g>
<g id="g107" transform="matrix( 1, 0, 0, 1, 0,630) ">
	<g id="use107">
		<g id="Layer0_51_FILL">
			<path id="path52" class="st0" d="M56.7,35.8c0.2-0.4,0.2-0.9,0-1.5c-2.5-4.5-5.7-8-9.5-10.4c-3.8-2.5-7.8-3.7-12-3.7
				c-4.2,0-8.2,1.3-12.1,3.8c-3.8,2.5-7,5.9-9.5,10.3c-0.4,0.5-0.4,1,0,1.5c2.5,4.5,5.7,8,9.5,10.5c3.8,2.5,7.8,3.7,12.1,3.7
				c4.2,0,8.2-1.3,12-3.8C51,43.7,54.1,40.2,56.7,35.8 M40.2,40.1c-1.4,1.4-3.1,2.1-5,2.1c-2,0-3.7-0.7-5.1-2.1c-1.3-1.4-2-3-2-5
				c0-1.9,0.7-3.6,2.1-5c1.4-1.4,3.1-2.1,5-2.1c1.9,0,3.6,0.7,5,2.1c1.3,1.3,2,3,2,5C42.2,37.1,41.5,38.7,40.2,40.1z"/>
		</g>
	</g>
</g>
<g id="g108" transform="matrix( 1, 0, 0, 1, 70,630) ">
	<g id="use108">
		<g id="Layer0_52_FILL">
			<path id="path53" class="st1" d="M0,0v70h70V0H0z"/>
		</g>
	</g>
</g>
<g id="g109" transform="matrix( 1, 0, 0, 1, 70,630) ">
	<g id="use109">
		<g id="Layer0_53_FILL">
			<path id="path54" class="st0" d="M56.7,35.8c0.2-0.4,0.2-0.9,0-1.5c-2.5-4.5-5.7-8-9.5-10.4c-3.8-2.5-7.8-3.7-12-3.7
				c-4.2,0-8.2,1.3-12.1,3.8c-3.8,2.5-7,5.9-9.5,10.3c-0.4,0.5-0.4,1,0,1.5c2.5,4.5,5.7,8,9.5,10.5c3.8,2.5,7.8,3.7,12.1,3.7
				c4.2,0,8.2-1.3,12-3.8C51,43.7,54.1,40.2,56.7,35.8 M40.2,40.1c-1.4,1.4-3.1,2.1-5,2.1c-2,0-3.7-0.7-5.1-2.1c-1.3-1.4-2-3-2-5
				c0-1.9,0.7-3.6,2.1-5c1.4-1.4,3.1-2.1,5-2.1c1.9,0,3.6,0.7,5,2.1c1.3,1.3,2,3,2,5C42.2,37.1,41.5,38.7,40.2,40.1z"/>
		</g>
	</g>
</g>
<g id="g110" transform="matrix( 1, 0, 0, 1, 140,630) ">
	<g id="use110">
		<g id="Layer0_54_FILL">
			<path id="path55" class="st1" d="M0,0v70h70V0H0z"/>
		</g>
	</g>
</g>
<g id="g111" transform="matrix( 1, 0, 0, 1, 140,630) ">
	<g id="use111">
		<g id="Layer0_55_FILL">
			<path id="path56" class="st0" d="M56.7,35.8c0.2-0.4,0.2-0.9,0-1.5c-2.5-4.5-5.7-8-9.5-10.4c-3.8-2.5-7.8-3.7-12-3.7
				c-4.2,0-8.2,1.3-12.1,3.8c-3.8,2.5-7,5.9-9.5,10.3c-0.4,0.5-0.4,1,0,1.5c2.5,4.5,5.7,8,9.5,10.5c3.8,2.5,7.8,3.7,12.1,3.7
				c4.2,0,8.2-1.3,12-3.8C51,43.7,54.1,40.2,56.7,35.8 M40.2,40.1c-1.4,1.4-3.1,2.1-5,2.1c-2,0-3.7-0.7-5.1-2.1c-1.3-1.4-2-3-2-5
				c0-1.9,0.7-3.6,2.1-5c1.4-1.4,3.1-2.1,5-2.1c1.9,0,3.6,0.7,5,2.1c1.3,1.3,2,3,2,5C42.2,37.1,41.5,38.7,40.2,40.1z"/>
		</g>
	</g>
</g>
<g id="g70_00000116956843834498130780000008813005108118300591_" transform="matrix( 1, 0, 0, 1, 0,210) ">
	<g id="use70_00000121268630430794533620000011594094512733636022_">
		<g id="Layer0_14_FILL_00000137811840990533577730000013387766828724831902_">
			<path id="path15_00000118369214214347532890000001705483774010706335_" class="st1" d="M0.2-70V0h70v-70H0.2z"/>
		</g>
	</g>
</g>
<g id="g71_00000161611309543868542600000011063116759617553847_" transform="matrix( 1, 0, 0, 1, 0,210) ">
	<g id="use71_00000045608921792802252350000010950473998149061281_">
		<g id="Layer0_15_FILL_00000064338378155147877230000016941050884968073143_">
			<path id="path16_00000118378478123071456160000009313643441077014172_" class="st0" d="M56.9-34.2c0.2-0.4,0.2-0.9,0-1.5
				c-2.5-4.5-5.7-8-9.5-10.5c-3.8-2.5-7.8-3.7-12-3.7c-4.2,0-8.2,1.3-12.1,3.8c-3.8,2.5-7,6-9.5,10.3c-0.4,0.5-0.4,1,0,1.5
				c2.5,4.5,5.7,8,9.5,10.5C27-21.3,31-20,35.4-20c4.2,0,8.2-1.3,12-3.8C51.1-26.3,54.3-29.8,56.9-34.2 M40.4-29.9
				c-1.4,1.4-3.1,2.1-5,2.1c-2,0-3.7-0.7-5.1-2.1c-1.3-1.4-2-3-2-5c0-1.9,0.7-3.6,2.1-5c1.4-1.4,3.1-2.1,5-2.1c1.9,0,3.6,0.7,5,2.1
				c1.3,1.3,2,3,2,5C42.4-32.9,41.7-31.3,40.4-29.9z"/>
		</g>
	</g>
</g>
<g id="g72_00000146473946239425859920000013764059788929118909_" transform="matrix( 1, 0, 0, 1, 70,210) ">
	<g id="use72_00000101805381409416905930000011354413302025921937_">
		<g id="Layer0_16_FILL_00000079445119946862813460000009952514099156522913_">
			<path id="path17_00000136395350870167292930000004826860758197146752_" class="st1" d="M0.2-70V0h70v-70H0.2z"/>
		</g>
	</g>
</g>
<g id="g73_00000044155219933479815260000006834829526468423308_" transform="matrix( 1, 0, 0, 1, 70,210) ">
	<g id="use73_00000111897581063664634040000013528373470717749642_">
		<g id="Layer0_17_FILL_00000131331980848365447360000016800039110268060597_">
			<path id="path18_00000064323608283374286670000016302196607261976224_" class="st0" d="M56.9-34.2c0.2-0.4,0.2-0.9,0-1.5
				c-2.5-4.5-5.7-8-9.5-10.5c-3.8-2.5-7.8-3.7-12-3.7c-4.2,0-8.2,1.3-12.1,3.8c-3.8,2.5-7,6-9.5,10.3c-0.4,0.5-0.4,1,0,1.5
				c2.5,4.5,5.7,8,9.5,10.5C27-21.3,31-20,35.4-20c4.2,0,8.2-1.3,12-3.8C51.1-26.3,54.3-29.8,56.9-34.2 M40.4-29.9
				c-1.4,1.4-3.1,2.1-5,2.1c-2,0-3.7-0.7-5.1-2.1c-1.3-1.4-2-3-2-5c0-1.9,0.7-3.6,2.1-5c1.4-1.4,3.1-2.1,5-2.1c1.9,0,3.6,0.7,5,2.1
				c1.3,1.3,2,3,2,5C42.4-32.9,41.7-31.3,40.4-29.9z"/>
		</g>
	</g>
</g>
<g id="g74_00000155857446978991225980000003146522013715117496_" transform="matrix( 1, 0, 0, 1, 140,210) ">
	<g id="use74_00000016063941990572363880000000373966760562158208_">
		<g id="Layer0_18_FILL_00000042728256102004777410000013773746051524523455_">
			<path id="path19_00000143579132948297444760000015381349650586150046_" class="st1" d="M0.2-70V0h70v-70H0.2z"/>
		</g>
	</g>
</g>
<g id="g75_00000094603929278480724060000011210543017543226039_" transform="matrix( 1, 0, 0, 1, 140,210) ">
	<g id="use75_00000127039418423654872470000009305568011162917525_">
		<g id="Layer0_19_FILL_00000102507071763787463540000000313238272614081671_">
			<path id="path20_00000165947037179505512520000006477302505238390668_" class="st0" d="M56.9-34.2c0.2-0.4,0.2-0.9,0-1.5
				c-2.5-4.5-5.7-8-9.5-10.5c-3.8-2.5-7.8-3.7-12-3.7c-4.2,0-8.2,1.3-12.1,3.8c-3.8,2.5-7,6-9.5,10.3c-0.4,0.5-0.4,1,0,1.5
				c2.5,4.5,5.7,8,9.5,10.5C27-21.3,31-20,35.4-20c4.2,0,8.2-1.3,12-3.8C51.1-26.3,54.3-29.8,56.9-34.2 M40.4-29.9
				c-1.4,1.4-3.1,2.1-5,2.1c-2,0-3.7-0.7-5.1-2.1c-1.3-1.4-2-3-2-5c0-1.9,0.7-3.6,2.1-5c1.4-1.4,3.1-2.1,5-2.1c1.9,0,3.6,0.7,5,2.1
				c1.3,1.3,2,3,2,5C42.4-32.9,41.7-31.3,40.4-29.9z"/>
		</g>
	</g>
</g>
<g>
	<g>
		<defs>
			<path id="SVGID_1_" d="M60.1,105.1c-0.6,32.5-48.9,32.5-49.5,0C11.2,72.6,59.6,72.6,60.1,105.1z"/>
		</defs>
		<clipPath id="SVGID_00000051353534985578451800000013238326577134432135_">
			<use xlink:href="#SVGID_1_"  style="overflow:visible;"/>
		</clipPath>
		<path style="clip-path:url(#SVGID_00000051353534985578451800000013238326577134432135_);fill:#FFFFFF;" d="M60.1,105.1H10.7V80.4
			h49.5L60.1,105.1L60.1,105.1z M60.1,111.2H10.7v5.5h49.5L60.1,111.2L60.1,111.2z M60.1,122.8H10.7v7h49.5L60.1,122.8L60.1,122.8z"
			/>
	</g>
</g>
</svg>
