<?xml version="1.0" encoding="utf-8"?>
<!-- Generator: Adobe Illustrator 25.4.1, SVG Export Plug-In . SVG Version: 6.00 Build 0)  -->
<svg version="1.1" id="Ebene_1" xmlns="http://www.w3.org/2000/svg" xmlns:xlink="http://www.w3.org/1999/xlink" x="0px" y="0px"
	 viewBox="0 0 126 150" style="enable-background:new 0 0 126 150;" xml:space="preserve">
<style type="text/css">
	.st0{fill:#FF4F97;}
	.st1{fill:#163FB6;}
	.st2{fill:#FC5E0C;}
	.st3{fill:none;}
	.st4{fill:#D2D2D2;}
	.st5{fill:#FFAF0B;}
	.st6{fill:#63AAF9;}
</style>
<path class="st0" d="M7.9,20.3c-0.9,0-1.6,0.7-1.6,1.6v32.2l3.3-2.2V21.9C9.5,21,8.8,20.3,7.9,20.3z"/>
<path class="st1" d="M17.3,46.5L6.2,54.1v27.2h6.7v-9.7c0-2.2-0.7-6.7,3.3-6.7L17.3,46.5z"/>
<path class="st0" d="M118.7,20.3c-0.9,0-1.6,0.7-1.6,1.6v29.9l3.3,2.2V21.9C120.3,21,119.6,20.3,118.7,20.3z"/>
<path class="st1" d="M109.2,46.5l11.1,7.6v27.2h-6.7v-9.7c0-2.2,0.7-6.7-3.2-6.7L109.2,46.5z"/>
<path class="st2" d="M16.1,65c-4,0-3.3,4.5-3.3,6.7v16.8c0.2,2,1.9,3.5,3.9,3.5h1.5V65L16.1,65z"/>
<path class="st3" d="M0,0h126v150H0V0z"/>
<path class="st4" d="M94.7,44.2C74.1,55,59,57.8,59.8,56.6s10.3-10.8,7.3-9c-11.9,7-25,11.7-38.7,13.8c-1,11.8-0.9,13.3-0.3,19.9
	c0.5,5.9,2.6,8.5,3.2,11.7c1.2,7.2,0.5,15.2,1.5,21.2c0.7,10.4,5.8,15.2,5.8,15.2c3.2,3,2.5,2.3,6.5,7c7.3,8.7,12.1,12.4,17,12.4
	c5.1,0,12.2-7.2,14.7-9.4s5.4-5.5,9.4-9.8c0,0,3.1-2.7,4.7-15.5c0.9-6.1,0.5-13.2,3.5-21.5c3-8.1,2.7-11.5,2.7-11.5
	c1-8.5,1-29.5,1-29.5C98.1,50.8,98.3,42.3,94.7,44.2z"/>
<path class="st5" d="M102.6,59.2c-1.9,0.1-3.6,1-4.6,2.6c-0.1,6.6-0.4,14.9-0.9,19.6c0,1-0.1,2-0.3,3v8c0,2.3,2.4,5.8,5.4,5.8
	c3.3,0,6-2.5,6.2-5.8V64.7C108.4,61.6,106.5,59.2,102.6,59.2z"/>
<path class="st5" d="M28.2,81.4c-0.6-6.6-0.6-8.1,0.3-19.9c-1.1-1.5-2.9-2.3-4.7-2.3c-2.9-0.2-5.3,2-5.5,4.9c0,0.2,0,0.4,0,0.6v27.7
	c0.3,3.2,3,5.7,6.2,5.8c3,0,5.4-3.5,5.4-5.8v-3.6C29,86.3,28.4,83.9,28.2,81.4z"/>
<path class="st2" d="M110.4,65h-2v27h1.3c2,0,3.7-1.6,3.9-3.6V71.6C113.7,69.5,114.4,65,110.4,65z"/>
<path class="st6" d="M109.2,46.5l7.8,5.4c-2.5-25.1-10.7-33.3-20.2-40.4C87.4,4.6,76,1.3,64.2,1h-0.9h-0.9
	C50.5,1.3,39.1,4.5,29.8,11.5C20.2,18.6,12,26.7,9.5,51.9l7.8-5.4c0.3-2.3,0.8-4.6,1.3-6.9c3.6-10.8,9.5-17.9,16-22.6
	C45,9.4,56.8,8,63.3,7.9C69.8,8,81.6,9.4,92,17c6.5,4.7,12.4,11.9,16,22.7C108.6,41.9,109,44.2,109.2,46.5L109.2,46.5z"/>
<path d="M32.8,114.3c-1-6-0.2-14-1.5-21.2c-0.3-1.5-0.8-3-1.4-4.4v3.6c0,2.3-2.4,5.8-5.4,5.8c-3.2-0.1-5.9-2.6-6.2-5.8V92h-1.5
	c-2,0-3.7-1.6-3.9-3.6v-7.1H9.8C6,91.5-0.1,94.7,0.6,94.7C8.7,94.8,12,91.2,12,91.2c-1.8,5.5-12.2,11-11.3,11.2
	c5.9,0.8,11.8-0.7,16.6-4.2c1.5,8.5,4.9,22.7,12.1,27.9c0.7,0.6,0.1-2.8,0.1-3.6c0.5,0.4,3,4.6,9,7.1
	C38.6,129.6,33.5,124.7,32.8,114.3z"/>
<path d="M109.8,92h-1.3v0.3c-0.2,3.3-3,5.8-6.2,5.8c-3,0-5.4-3.5-5.4-5.8v-8c-0.6,2.9-1.4,5.7-2.4,8.5c-3,8.3-2.6,15.4-3.5,21.5
	c-1.7,12.8-4.7,15.5-4.7,15.5c5.9-2.7,8.1-8.2,8.3-7.6c0.3,1.3-0.6,3.5-0.6,5.6c3.3-2.3,5.9-5.4,7.6-9c0.5,1.2,0.6,2.9,1.2,4.1
	c0,0,8.9-14.5,10-25.8c0.2-2.6,0.4-4.8,0.4-6.7C112.2,91.4,111,92,109.8,92z"/>
<path d="M98.1,51.8c0,0,0,4.3-0.1,9.9c1-1.5,2.8-2.5,4.6-2.6c3.9,0,5.8,2.4,5.8,5.5V65h2l-1.2-18.4c-0.3-2.3-0.7-4.6-1.3-6.9
	c-3.6-10.8-9.5-18-15.9-22.6C81.6,9.4,69.8,8,63.3,7.9C56.8,8,45,9.4,34.6,17c-6.5,4.7-12.4,11.9-16,22.6c-0.6,2.3-1,4.6-1.3,6.9
	L16.2,65h2.1v-0.3c-0.1-2.9,2.1-5.3,4.9-5.5c0.2,0,0.4,0,0.6,0c1.8,0,3.6,0.8,4.7,2.3c13.7-2.1,26.8-6.9,38.7-13.9
	c3-1.8-6.5,8-7.3,9S74.1,55,94.7,44.2C98.3,42.3,98.1,50.7,98.1,51.8L98.1,51.8z"/>
</svg>
