<?xml version="1.0" encoding="utf-8"?>
<!-- Generator: Adobe Illustrator 25.4.1, SVG Export Plug-In . SVG Version: 6.00 Build 0)  -->
<svg version="1.1" id="Ebene_1" xmlns="http://www.w3.org/2000/svg" xmlns:xlink="http://www.w3.org/1999/xlink" x="0px" y="0px"
	 viewBox="0 0 2048 2048" style="enable-background:new 0 0 2048 2048;" xml:space="preserve">
<style type="text/css">
	.st0{fill:#FFFFFF;}
</style>
<g transform="matrix( 1, 0, 0, 1, 0,0) ">
	<g>
		<g id="Layer0_0_FILL">
			<path class="st0" d="M449.8,1202.7c-59.8-20.6-107.2-42.9-142.2-66.8c12.4,86.6,39.8,167,82,241.3
				c32.1,56.6,72.9,109.5,122.3,158.9c49.9,49.9,103.4,91,160.5,123.3c74.1,41.8,154.3,68.9,240.6,81.2
				c-23.8-34.8-46-81.8-66.5-141.2c-107.3-17.4-205.5-51.3-294.5-101.7C501.5,1408.6,467.3,1310.3,449.8,1202.7 M845.9,448.5
				c20.5-59.1,42.6-106.1,66.3-140.9C825.5,320,745,347.4,670.7,389.7c-56.5,32.1-109.4,72.9-158.7,122.2
				c-48.9,48.9-89.4,101.3-121.4,157.3c-42.7,74.5-70.3,155.3-82.9,242.4c34.9-23.8,82-45.9,141.4-66.3
				c17.6-107.6,51.7-205.9,102.4-295C640.4,499.8,738.6,465.9,845.9,448.5 M1740.3,1136.3c-34.9,23.8-82,45.9-141.4,66.4
				c-17.6,107.6-51.7,205.9-102.4,295c-88.9,50.4-187.1,84.2-294.4,101.7c-20.5,59.2-42.6,106.2-66.4,141.1
				c86.6-12.4,167-39.8,241.3-81.9c56.6-32.2,109.6-73,159.1-122.4c49-49,89.5-101.5,121.5-157.5
				C1700.2,1304,1727.8,1223.3,1740.3,1136.3 M1495.8,550.2c50.7,89.1,84.8,187.4,102.4,295c59.8,20.6,107.2,42.9,142.2,66.9
				c-12.5-86.6-39.8-167.1-82-241.3c-32.2-56.5-72.9-109.5-122.3-158.8c-49.8-49.8-103.3-90.9-160.4-123.2
				c-74.1-41.9-154.4-69-240.7-81.3c23.8,34.8,45.9,81.8,66.4,141C1308.7,465.9,1406.9,499.8,1495.8,550.2 M464.7,839.9
				c-5.3,1.7-10.5,3.5-15.6,5.3c-9.3,57-14,116.6-14,178.8h0.7c0,62.2,4.7,121.8,14,178.8c5.1,1.8,10.3,3.5,15.6,5.3
				c92.5,30.3,196.5,51.6,312,63.8c-8.2-77.4-12.3-160-12.3-247.8h-0.7c0-87.8,4.1-170.4,12.4-247.8
				C661.2,788.3,557.2,809.6,464.7,839.9 M1598.2,845.2c-5.1-1.8-10.3-3.5-15.6-5.3c-92.5-30.3-196.5-51.6-312-63.8
				c8.2,77.4,12.4,160,12.4,247.8h0.7c0,87.8-4.1,170.4-12.3,247.8c115.5-12.2,219.5-33.5,312-63.8c5.3-1.7,10.5-3.5,15.6-5.3
				c9.3-57,14-116.6,14-178.8h-0.7C1612.2,961.7,1607.5,902.2,1598.2,845.2 M1024.3,1284c-0.1,0-0.2,0-0.3,0
				c-87.3,0-169.6-4.1-246.7-12.3c12.2,115.1,33.4,218.9,63.7,311.2c1.8,5.6,3.7,11.1,5.6,16.4c56.6,9.2,115.7,13.8,177.4,13.8
				c0.1,0,0.2,0,0.3,0c61.8,0,121.1-4.6,177.8-13.8c1.9-5.4,3.7-10.9,5.6-16.4c30.3-92.3,51.5-196,63.7-311.2
				C1194.1,1279.9,1111.8,1284,1024.3,1284 M1024,434.7c-0.1,0-0.2,0-0.4,0c-61.8,0-121.1,4.6-177.8,13.8
				c-1.9,5.4-3.7,10.9-5.6,16.4c-30.3,92.3-51.5,196-63.7,311.2c77.2-8.2,159.5-12.2,247-12.3c0.1,0,0.2,0,0.4,0
				c87.3,0,169.5,4.1,246.6,12.3c-12.2-115.1-33.4-218.9-63.7-311.2c-1.8-5.6-3.7-11.1-5.6-16.4
				C1144.8,439.3,1085.7,434.7,1024,434.7z"/>
		</g>
	</g>
</g>
</svg>
