
<svg xmlns="http://www.w3.org/2000/svg" version="1.1" xmlns:xlink="http://www.w3.org/1999/xlink" preserveAspectRatio="none" x="0px" y="0px" width="2048px" height="2048px" viewBox="0 0 2048 2048">
<defs>
<g id="Layer0_0_FILL">
<path fill="#FFFFFF" stroke="none" d="
M 1428 1404.75
Q 1438.25 1395.3 1448.25 1385.3 1624 1209.55 1624 961 1624 712.5 1448.25 536.75 1272.5 361 1024 361 775.5 361 599.75 536.75 424 712.5 424 961 424 1209.55 599.75 1385.3 609.75 1395.3 620 1404.75
L 468.15 1686.9 1579.85 1686.9 1428 1404.75
M 1426.95 961
Q 1426.95 1127.9 1308.9 1245.95 1190.9 1363.95 1024 1363.95 857.1 1363.95 739.1 1245.95 621.05 1127.9 621.05 961 621.05 794.1 739.1 676.1 857.1 558.1 1024 558.1 1190.9 558.1 1308.9 676.1 1426.95 794.1 1426.95 961 Z"/>
</g>
</defs>

<g transform="matrix( 1, 0, 0, 1, 0,0) ">
<use xlink:href="#Layer0_0_FILL"/>
</g>
</svg>
